<mxfile host="app.diagrams.net" modified="2024-04-12T23:45:55.953Z" agent="Mozilla/5.0 (Windows NT 10.0; Win64; x64) AppleWebKit/537.36 (KHTML, like Gecko) Chrome/102.0.0.0 Safari/537.36" etag="yrMzTE5LhlOljvILntg2" version="24.2.5" type="github">
  <diagram name="Página-1" id="b96ssU66Ucx9uO2PybQJ">
    <mxGraphModel dx="1434" dy="1957" grid="1" gridSize="10" guides="1" tooltips="1" connect="1" arrows="1" fold="1" page="1" pageScale="1" pageWidth="827" pageHeight="1169" math="0" shadow="0">
      <root>
        <mxCell id="0" />
        <mxCell id="1" parent="0" />
        <mxCell id="N5TBgAb3mPvJIya9Ody1-1" value="Sistema" style="shape=umlActor;verticalLabelPosition=bottom;verticalAlign=top;html=1;outlineConnect=0;" parent="1" vertex="1">
          <mxGeometry x="40" y="180" width="30" height="60" as="geometry" />
        </mxCell>
        <mxCell id="N5TBgAb3mPvJIya9Ody1-2" value="Os dados recebidos pela API, deverão ser armazenados no banco de dados." style="ellipse;whiteSpace=wrap;html=1;" parent="1" vertex="1">
          <mxGeometry x="30" y="-200" width="190" height="110" as="geometry" />
        </mxCell>
        <mxCell id="N5TBgAb3mPvJIya9Ody1-3" value="&lt;div style=&quot;&quot;&gt;&lt;span style=&quot;background-color: initial;&quot;&gt;Realizar o tratamento dos dados enviados pela API, e armazenar com as classificações que forem cabido.&lt;/span&gt;&lt;/div&gt;" style="ellipse;whiteSpace=wrap;html=1;align=center;" parent="1" vertex="1">
          <mxGeometry x="450" y="-70" width="270" height="140" as="geometry" />
        </mxCell>
        <mxCell id="N5TBgAb3mPvJIya9Ody1-4" value="Deverá enviar os dados para um mini controlador a onde ele ira fazer os devidos processamentos." style="ellipse;whiteSpace=wrap;html=1;align=center;" parent="1" vertex="1">
          <mxGeometry x="480" y="80" width="240" height="130" as="geometry" />
        </mxCell>
        <mxCell id="N5TBgAb3mPvJIya9Ody1-5" value="" style="endArrow=none;html=1;rounded=0;" parent="1" target="N5TBgAb3mPvJIya9Ody1-2" edge="1">
          <mxGeometry width="50" height="50" relative="1" as="geometry">
            <mxPoint x="70" y="200" as="sourcePoint" />
            <mxPoint x="160" y="150" as="targetPoint" />
          </mxGeometry>
        </mxCell>
        <mxCell id="N5TBgAb3mPvJIya9Ody1-6" value="" style="endArrow=none;html=1;rounded=0;exitX=1;exitY=0.3333333333333333;exitDx=0;exitDy=0;exitPerimeter=0;" parent="1" source="N5TBgAb3mPvJIya9Ody1-1" target="N5TBgAb3mPvJIya9Ody1-3" edge="1">
          <mxGeometry width="50" height="50" relative="1" as="geometry">
            <mxPoint x="70" y="230" as="sourcePoint" />
            <mxPoint x="170" y="240" as="targetPoint" />
          </mxGeometry>
        </mxCell>
        <mxCell id="N5TBgAb3mPvJIya9Ody1-7" value="" style="endArrow=none;html=1;rounded=0;exitX=1;exitY=0.3333333333333333;exitDx=0;exitDy=0;exitPerimeter=0;" parent="1" source="N5TBgAb3mPvJIya9Ody1-1" target="N5TBgAb3mPvJIya9Ody1-4" edge="1">
          <mxGeometry width="50" height="50" relative="1" as="geometry">
            <mxPoint x="120" y="280" as="sourcePoint" />
            <mxPoint x="170" y="330" as="targetPoint" />
          </mxGeometry>
        </mxCell>
        <mxCell id="N5TBgAb3mPvJIya9Ody1-10" value="&lt;div style=&quot;&quot;&gt;&lt;span style=&quot;background-color: initial;&quot;&gt;Receber os dados da API Moovit em JSON sendo eles ordenadas, informações sobre o ónibus, tempo de espera da linha e demais informações necessárias.&amp;nbsp;&lt;/span&gt;&lt;/div&gt;" style="ellipse;whiteSpace=wrap;html=1;align=center;" parent="1" vertex="1">
          <mxGeometry x="245" y="-210" width="290" height="160" as="geometry" />
        </mxCell>
        <mxCell id="N5TBgAb3mPvJIya9Ody1-11" value="Transmitir as informações pelo mini controlador para o terminal com meios visuais e sonoros." style="ellipse;whiteSpace=wrap;html=1;" parent="1" vertex="1">
          <mxGeometry x="480" y="230" width="190" height="130" as="geometry" />
        </mxCell>
        <mxCell id="N5TBgAb3mPvJIya9Ody1-14" value="" style="endArrow=none;html=1;rounded=0;exitX=1;exitY=0.3333333333333333;exitDx=0;exitDy=0;exitPerimeter=0;" parent="1" source="N5TBgAb3mPvJIya9Ody1-1" target="N5TBgAb3mPvJIya9Ody1-10" edge="1">
          <mxGeometry width="50" height="50" relative="1" as="geometry">
            <mxPoint x="60" y="90" as="sourcePoint" />
            <mxPoint x="110" y="40" as="targetPoint" />
          </mxGeometry>
        </mxCell>
        <mxCell id="N5TBgAb3mPvJIya9Ody1-15" value="" style="endArrow=none;html=1;rounded=0;entryX=1;entryY=0.3333333333333333;entryDx=0;entryDy=0;entryPerimeter=0;" parent="1" source="N5TBgAb3mPvJIya9Ody1-11" target="N5TBgAb3mPvJIya9Ody1-1" edge="1">
          <mxGeometry width="50" height="50" relative="1" as="geometry">
            <mxPoint x="90" y="470" as="sourcePoint" />
            <mxPoint x="140" y="420" as="targetPoint" />
          </mxGeometry>
        </mxCell>
        <mxCell id="ckj6eGljM4swhcUABcUI-3" value="" style="ellipse;whiteSpace=wrap;html=1;" vertex="1" parent="1">
          <mxGeometry x="440" y="380" width="120" height="80" as="geometry" />
        </mxCell>
        <mxCell id="ckj6eGljM4swhcUABcUI-4" value="" style="endArrow=none;html=1;rounded=0;entryX=0;entryY=0;entryDx=0;entryDy=0;" edge="1" parent="1" target="ckj6eGljM4swhcUABcUI-3">
          <mxGeometry width="50" height="50" relative="1" as="geometry">
            <mxPoint x="70" y="200" as="sourcePoint" />
            <mxPoint x="440" y="150" as="targetPoint" />
          </mxGeometry>
        </mxCell>
      </root>
    </mxGraphModel>
  </diagram>
</mxfile>
